<svg width="149" height="57" viewBox="0 0 149 57" fill="none" xmlns="http://www.w3.org/2000/svg">
<g clip-path="url(#clip0_302_4)">
<path d="M19 28.5C19 25.9804 20.0009 23.5641 21.7825 21.7825C23.5641 20.0009 25.9804 19 28.5 19C31.0196 19 33.4359 20.0009 35.2175 21.7825C36.9991 23.5641 38 25.9804 38 28.5C38 31.0196 36.9991 33.4359 35.2175 35.2175C33.4359 36.9991 31.0196 38 28.5 38C25.9804 38 23.5641 36.9991 21.7825 35.2175C20.0009 33.4359 19 31.0196 19 28.5Z" fill="#1ABCFE"/>
<path d="M0 47.5C0 44.9804 1.00089 42.5641 2.78249 40.7825C4.56408 39.0009 6.98044 38 9.5 38H19V47.5C19 50.0196 17.9991 52.4359 16.2175 54.2175C14.4359 55.9991 12.0196 57 9.5 57C6.98044 57 4.56408 55.9991 2.78249 54.2175C1.00089 52.4359 0 50.0196 0 47.5H0Z" fill="#0ACF83"/>
<path d="M19 0V19H28.5C31.0196 19 33.4359 17.9991 35.2175 16.2175C36.9991 14.4359 38 12.0196 38 9.5C38 6.98044 36.9991 4.56408 35.2175 2.78249C33.4359 1.00089 31.0196 0 28.5 0L19 0Z" fill="#FF7262"/>
<path d="M0 9.5C0 12.0196 1.00089 14.4359 2.78249 16.2175C4.56408 17.9991 6.98044 19 9.5 19H19V0H9.5C6.98044 0 4.56408 1.00089 2.78249 2.78249C1.00089 4.56408 0 6.98044 0 9.5H0Z" fill="#F24E1E"/>
<path d="M0 28.5C0 31.0196 1.00089 33.4359 2.78249 35.2175C4.56408 36.9991 6.98044 38 9.5 38H19V19H9.5C6.98044 19 4.56408 20.0009 2.78249 21.7825C1.00089 23.5641 0 25.9804 0 28.5H0Z" fill="#A259FF"/>
</g>
<g clip-path="url(#clip1_302_4)">
<path d="M54.6768 11V37.3631L58.0603 37.3762V24.8223H66.1939V21.5008H58.0473V14.3085H68.6535V11H54.6768ZM74.7179 16.3615C75.3046 16.3615 75.8673 16.1273 76.2822 15.7104C76.6971 15.2935 76.9302 14.7281 76.9302 14.1385C76.9302 13.5489 76.6971 12.9834 76.2822 12.5665C75.8673 12.1496 75.3046 11.9154 74.7179 11.9154C74.1311 11.9154 73.5684 12.1496 73.1535 12.5665C72.7386 12.9834 72.5055 13.5489 72.5055 14.1385C72.5055 14.7281 72.7386 15.2935 73.1535 15.7104C73.5684 16.1273 74.1311 16.3615 74.7179 16.3615V16.3615ZM73.0131 19.67V37.3762H76.3966V19.67H73.0131V19.67Z" fill="black"/>
<path fill-rule="evenodd" clip-rule="evenodd" d="M88.9027 19.16C84.426 19.16 81.3027 22.9654 81.3027 27.49C81.3027 32.0146 84.426 35.82 88.9027 35.82C90.9589 35.82 92.6507 35.0354 93.887 33.7277V36.0815C93.8956 36.7849 93.7654 37.4829 93.5039 38.1354C93.2423 38.7878 92.8547 39.3817 92.3634 39.8827C91.8721 40.3837 91.2868 40.7818 90.6415 41.0542C89.9961 41.3265 89.3034 41.4676 88.6034 41.4692C87.5233 41.4692 86.4562 41.0508 85.6103 40.4492L83.9185 43.3915C85.2267 44.2412 86.7388 44.7204 88.2954 44.7785C89.852 44.8365 91.3953 44.4714 92.7626 43.7215C94.1298 42.9716 95.2703 41.8648 96.0638 40.5178C96.8572 39.1709 97.2741 37.6337 97.2705 36.0685V19.6831H93.887V21.2654C92.6507 19.9577 90.9589 19.1731 88.9027 19.1731V19.16ZM84.6733 27.49C84.6733 24.6785 86.8075 22.4685 89.2801 22.4685C91.7527 22.4685 93.874 24.6915 93.874 27.49C93.874 30.3015 91.7397 32.4985 89.2801 32.4985C86.8075 32.4985 84.6733 30.3015 84.6733 27.49V27.49Z" fill="black"/>
<path d="M109.425 22.4685C108.458 22.4856 107.536 22.8849 106.859 23.5799C106.181 24.2749 105.804 25.2098 105.808 26.1823V37.3762H102.424V19.67H105.808V21.2915C106.314 20.6174 106.971 20.0729 107.727 19.7025C108.482 19.332 109.314 19.1462 110.154 19.16C112.523 19.16 114.344 20.3369 115.386 22.1415C115.966 21.2369 116.761 20.491 117.699 19.9707C118.637 19.4504 119.689 19.1718 120.76 19.16C124.599 19.16 127.007 22.2723 127.007 26.13V37.3762H123.649V26.1692C123.653 25.1967 123.275 24.2618 122.598 23.5668C121.921 22.8718 120.999 22.4726 120.031 22.4554C119.064 22.4726 118.142 22.8718 117.465 23.5668C116.788 24.2618 116.41 25.1967 116.414 26.1692V37.3631H113.03V26.1692C113.034 25.1989 112.658 24.266 111.984 23.5713C111.31 22.8767 110.391 22.476 109.425 22.4554V22.4685Z" fill="black"/>
<path fill-rule="evenodd" clip-rule="evenodd" d="M145.005 21.6838C144.236 20.8788 143.313 20.2397 142.29 19.8057C141.268 19.3718 140.168 19.1521 139.058 19.16C134.034 19.16 130.469 23.4231 130.469 28.5231C130.469 33.6231 134.034 37.8862 139.058 37.8862C140.167 37.8918 141.267 37.671 142.289 37.2372C143.311 36.8034 144.235 36.1655 145.005 35.3623V37.3762H148.375V19.67H144.992V21.6838H145.005ZM133.839 28.5231C133.839 25.1492 136.416 22.4685 139.422 22.4685C142.415 22.4685 145.005 25.1492 145.005 28.5231C145.005 31.8969 142.428 34.5646 139.422 34.5646C136.429 34.5646 133.839 31.8969 133.839 28.5231V28.5231Z" fill="black"/>
</g>
<defs>
<clipPath id="clip0_302_4">
<rect width="38" height="57" fill="white"/>
</clipPath>
<clipPath id="clip1_302_4">
<rect width="95" height="34" fill="white" transform="translate(54 11)"/>
</clipPath>
</defs>
</svg>
